# xmcd
#
# Track frame offsets:
#	150
#	21294
#	43469
#	63128
#	82756
#	94081
#	117880
#	139151
#	160152
#	175209
#	186081
#	208017
#	230366
#	253665
#	275224
#
# Disc length: 3941 seconds
#
# Revision: 1
# Processed by: cddbd v1.5.1PL0 Copyright (c) Steve Scherf et al.
# Submitted via: audiograbber 1.83.01
#
DISCID=d10f630f
DTITLE=Ludacris - DTP - Golden Grain (Bootleg)
DYEAR=2003
DGENRE=Rap
TTITLE0=Break Sumthin'
TTITLE1=Growing Pains (Do It Again) [Remix]
TTITLE2=Posted
TTITLE3=Smokin' Dro
TTITLE4=Big Chain Records (Skit)
TTITLE5=Pimp Council
TTITLE6=Play Pen to the State Pen
TTITLE7=R.P.M.
TTITLE8=Can't Be Stopped (I Know)
TTITLE9=Behind the Chain (Skit)
TTITLE10=A-Town Hatz
TTITLE11=N.S.E.W.
TTITLE12=When I Touch Down
TTITLE13=Outro on Ya ASS
TTITLE14=Move Bitch
EXTD=
EXTT0=
EXTT1=
EXTT2=
EXTT3=
EXTT4=
EXTT5=
EXTT6=
EXTT7=
EXTT8=
EXTT9=
EXTT10=
EXTT11=
EXTT12=
EXTT13=
EXTT14=
PLAYORDER=
